<svg xmlns="http://www.w3.org/2000/svg" width="68.959" height="108.794" viewBox="0 0 68.959 108.794"><defs><style>.a{fill:#202020;}</style></defs><g transform="translate(-93.735)"><g transform="translate(93.735 0)"><path class="a" d="M150.883,26.763a38.339,38.339,0,0,1-11.8-24.95,1.814,1.814,0,0,0-3.627,0v75.7c-5.477-5.555-16.236-6.651-26.266-2.1-6.937,3.152-12.346,8.5-14.47,14.31a13.642,13.642,0,0,0,.232,10.737c2.561,5.385,8.773,8.327,16.021,8.327a30.884,30.884,0,0,0,12.664-2.844c6.937-3.152,12.348-8.5,14.47-14.31a20.808,20.808,0,0,0,.979-7.324V36.39a43.06,43.06,0,0,0,9.279,13.1c9.208,8.92,10.536,14.12,10.679,15.943a1.812,1.812,0,0,0,1.806,1.67c.024,0,.047,0,.072,0a1.811,1.811,0,0,0,1.741-1.812V47.268C162.812,45.858,162.925,38.427,150.883,26.763Z" transform="translate(-93.735 0)"/></g></g></svg>