<svg xmlns="http://www.w3.org/2000/svg" width="50.921" height="56.353" viewBox="0 0 50.921 56.353"><defs><style>.a{fill:none;}.a,.b{fill-rule:evenodd;}.b{fill:#5e5e5e;}</style></defs><path class="a" d="M31.14,5.231q14.728,0,29.456-.014c.509,0,.609.1.609.607q-.025,27.57,0,55.139c0,.507-.1.607-.609.606q-24.844-.025-49.687,0c-.51,0-.708-.1-.6-.606a1.834,1.834,0,0,0,2.014.265c.9-.345,1.825-.628,2.737-.946C23,57.516,30.359,53.752,36.647,48.091A32.149,32.149,0,0,0,45.583,35a29.509,29.509,0,0,0,1.486-12.041,21.342,21.342,0,0,0-2.094-8.347A15.81,15.81,0,0,0,36.4,6.494,27.549,27.549,0,0,0,31.14,5.231Zm20.626,8.824a3.651,3.651,0,0,0,3.67,3.751,3.723,3.723,0,0,0,3.8-3.728,3.654,3.654,0,0,0-3.783-3.712A3.579,3.579,0,0,0,51.767,14.055Zm3.721,20.134a3.64,3.64,0,0,0,3.748-3.675,3.814,3.814,0,0,0-3.806-3.767,3.662,3.662,0,0,0-3.662,3.771A3.589,3.589,0,0,0,55.487,34.189Z" transform="translate(-10.284 -5.217)"/><path class="a" d="M10.319,60.667q0-27.356-.02-54.712c0-.671.195-.741.78-.737,5.052.023,10.105.014,15.158.014a20.826,20.826,0,0,0-5.39,1.6c-6.267,3.1-9.43,9.631-7.722,16.068.88,3.32,2.721,5.7,6.373,6.174,3.087.4,7.031-.756,8.109-5.083a9.731,9.731,0,0,0-.014-4.759,6.079,6.079,0,0,0-4.831-4.689c-2.153-.527-3.987.279-5.716,1.459-.194.132-.381.449-.618.311-.263-.152-.131-.5-.1-.755A7.276,7.276,0,0,1,18.9,10.932a12.87,12.87,0,0,1,7.34-3.1,9.08,9.08,0,0,1,8.419,3.258,14,14,0,0,1,2.683,5.4,41.666,41.666,0,0,1,1.091,13.957A27.337,27.337,0,0,1,33.26,44.439,39.208,39.208,0,0,1,20.487,55.567c-2.841,1.63-5.9,2.8-8.879,4.15A2.462,2.462,0,0,0,10.319,60.667Z" transform="translate(-10.289 -5.217)"/><path class="b" d="M10.332,60.676a2.463,2.463,0,0,1,1.288-.95c2.975-1.351,6.038-2.52,8.879-4.15A39.2,39.2,0,0,0,33.272,44.448a27.342,27.342,0,0,0,5.174-13.992A41.65,41.65,0,0,0,37.356,16.5a14,14,0,0,0-2.683-5.4,9.083,9.083,0,0,0-8.419-3.258,12.871,12.871,0,0,0-7.34,3.1,7.276,7.276,0,0,0-2.568,4.622c-.035.253-.167.6.1.755.237.138.425-.179.618-.311,1.729-1.18,3.563-1.987,5.716-1.459a6.079,6.079,0,0,1,4.831,4.689A9.731,9.731,0,0,1,27.62,24c-1.079,4.328-5.022,5.48-8.109,5.083-3.652-.469-5.492-2.855-6.373-6.174C11.43,16.468,14.593,9.935,20.86,6.838a20.8,20.8,0,0,1,5.39-1.6h4.909A27.519,27.519,0,0,1,36.419,6.5a15.808,15.808,0,0,1,8.574,8.115,21.342,21.342,0,0,1,2.094,8.347A29.52,29.52,0,0,1,45.6,35.007,32.149,32.149,0,0,1,36.664,48.1c-6.287,5.661-13.65,9.425-21.581,12.192-.912.318-1.836.6-2.737.946a1.833,1.833,0,0,1-2.014-.265Z" transform="translate(-10.302 -5.226)"/><path class="b" d="M77.208,17.243A3.579,3.579,0,0,1,80.9,13.554a3.654,3.654,0,0,1,3.783,3.712,3.724,3.724,0,0,1-3.8,3.728A3.651,3.651,0,0,1,77.208,17.243Z" transform="translate(-35.725 -8.405)"/><path class="b" d="M80.929,47.519a3.589,3.589,0,0,1-3.721-3.67,3.662,3.662,0,0,1,3.662-3.771,3.815,3.815,0,0,1,3.806,3.767A3.64,3.64,0,0,1,80.929,47.519Z" transform="translate(-35.725 -18.548)"/></svg>