<svg xmlns="http://www.w3.org/2000/svg" width="37" height="100" viewBox="0 0 37 100"><defs><style>.a{fill:#5e5e5e;}</style></defs><path class="a" d="M37,64.355c0-10.546-8.754-17.528-18.046-14.907-.941-2.75-1.862-5.334-2.7-7.624,3.8-5.043,9.065-13.467,10.106-20.4A25.743,25.743,0,0,0,19.2,0C7.719,10.023,6.278,25.262,11.64,38.476,3.507,48.965.152,55.73,0,63.793c-.181,9.8,7,18.973,18.238,18.973a19.881,19.881,0,0,0,5.673-.8c.392,9.836-2.04,13.139-3.842,13.559-.732.168-.865-.256-.572-.577,2.172-2.366.481-7.935-4.112-7.935-3.6,0-5.6,3.083-5.562,6.243.043,3.327,2.354,6.744,7.46,6.744,5.325,0,10.619-4.949,9.566-19.192A18.911,18.911,0,0,0,37,64.355ZM14.01,20.391c1.144-6.2,3.889-10.2,6.862-13.868,2.432,3.718,3.1,10.318,1.259,15.131-1.856,4.869-4.271,8.653-8.1,13.708C12.891,30.912,12.905,26.379,14.01,20.391ZM3.6,65.159c0-7.841,4.327-13.44,10.5-20.638.75,1.943,1.49,3.961,2.2,6.011-5.9,3.377-8.833,12.124-4.585,17.842l1.829-.688c-1.582-5.671.6-10.4,4.363-12.38,2.9,8.963,5.169,17.858,5.745,23.027a11.383,11.383,0,0,1-5.418,1.52A14.526,14.526,0,0,1,3.6,65.159ZM26.36,76.451a154.434,154.434,0,0,0-5.751-22.042c6.929-1.168,11.244,4.3,11.244,11.21C31.853,69.688,29.537,73.721,26.36,76.451Z" transform="translate(0)"/></svg>