<svg xmlns="http://www.w3.org/2000/svg" width="112.641" height="112.132" viewBox="0 0 112.641 112.132"><defs><style>.a{fill:#202020;}</style></defs><g transform="translate(0 -0.8)"><g transform="translate(0 0.8)"><path class="a" d="M112.513,34.147V9.2a4.33,4.33,0,0,0-.127-1.273,8.775,8.775,0,0,0-2.418-4.837A7.329,7.329,0,0,0,104.749.8a2.8,2.8,0,0,0-1.018.127L45.438,9.709a9.314,9.314,0,0,0-5.473,2.673,7.77,7.77,0,0,0-2.291,5.6v65.8c-.255-.127-.382-.255-.509-.255a25.524,25.524,0,0,0-15.146-4.709A25.524,25.524,0,0,0,6.873,83.53C2.673,86.585,0,91.04,0,95.876s2.546,9.291,6.873,12.346a25.524,25.524,0,0,0,15.146,4.709,25.524,25.524,0,0,0,15.146-4.709c4.2-3.055,6.873-7.509,6.873-12.346V45.856l62.111-8.018V75c-.127-.127-.255-.127-.382-.255a26.711,26.711,0,0,0-30.292,0C71.275,77.8,68.6,82.258,68.6,87.094s2.546,9.291,6.873,12.346a26.711,26.711,0,0,0,30.292,0c4.2-3.055,6.873-7.509,6.873-12.346V34.529A.468.468,0,0,1,112.513,34.147Z" transform="translate(0 -0.8)"/></g></g></svg>