<svg xmlns="http://www.w3.org/2000/svg" width="43" height="64.5" viewBox="0 0 43 64.5"><defs><style>.a{fill:#5e5e5e;fill-rule:evenodd;}</style></defs><path class="a" d="M44.272,29.783c-1,1.417-1.731,3.137-3.216,3.992a14.388,14.388,0,0,1,3.216,4.134c8.567-3.353,16.937,3.61,17.571,13.117a15.253,15.253,0,0,1-3.588,11.406c-4.117,4.432-13.125,4.482-16.582-.57a7.341,7.341,0,0,1-1.113-5.418c1.283-5.23,10.163-3.292,8.042,2.567-.642,1.775-2.181,2.282-4.454,2.28.919,2.653,3.741,3.18,5.568,2.995,6.31-.641,6.834-15.688,3.96-21.671-1.152-2.4-5.207-4.824-8.414-2.139-1.438,1.2-1.8,3.375-2.227,5.988-1.022-5.951-3.614-10.094-7.672-12.547V65.855h-2.6V1.7h2.6V33.348C39.093,31.324,41.9,27,42.787,21.229c.586,2.46.951,4.878,2.6,5.988a6.267,6.267,0,0,0,5.94.285c4.966-2.708,5.3-21.023.124-23.953a5.782,5.782,0,0,0-7.424,2.139c1.751.412,3.782.707,4.454,2.566a5,5,0,0,1-.371,3.992c-2.074,3.357-7.241,1.391-7.672-1.711-.752-5.4,4.407-8.747,8.414-9.124C60.711.295,65.637,16.153,58.626,25.363,55.607,29.329,49.551,32.5,44.272,29.783Z" transform="translate(-18.885 -1.355)"/><path class="a" d="M16.818,1.869H27.36V65.927H16.633V2.3C16.618,2.094,16.6,1.893,16.818,1.869Z" transform="translate(-16.625 -1.427)"/></svg>