<svg xmlns="http://www.w3.org/2000/svg" width="42.333" height="63.5" viewBox="0 0 42.333 63.5"><defs><style>.a{fill:#5e5e5e;}</style></defs><rect class="a" width="7.458" height="63.131" transform="translate(0 0)"/><path class="a" d="M271.246,153.466a14.649,14.649,0,0,0-5.551-9.514c-3.459-2.53-8.453-2.53-12.317-.789L250.46,138.6l2.818-4.6s9.735,5.077,16.1-4.305c2.733-4.65,1.856-10.829,1.856-10.829S269.61,105.206,254.458,107a11.128,11.128,0,0,0-5.062,1.89,6.672,6.672,0,0,0-3.206,5.718c.186,5.439,5.315,4.519,5.315,4.519a4.116,4.116,0,0,0,3.273-4.469,3.953,3.953,0,0,0-1.535-2.4,3.348,3.348,0,0,1-.354-.427,1.755,1.755,0,0,1,.979-2.761c.017,0,.017,0,.034-.016a9.421,9.421,0,0,1,4.994.394,6.185,6.185,0,0,1,3.206,3.812c1.08,3.023.979,8.758.979,8.758s-.2,5.39-1.232,8.019c-1.367,3.484-5.669,3.007-8.048,1.315-.051-.115-2.885-1.84-3.678-8.2,0,0-1.012,9.53-7.643,14.789V106.8H240.1v63.131h2.379V139.236c.489.345,5.77,4.322,7.643,14.559a25.882,25.882,0,0,1,2.16-6.277c1.2-2.07,2.953-3.549,6.513-2.941.051.016.118.016.169.033.472.082,3.729.9,4.1,9.12,0,0,1.316,13.523-5.77,14.657a7.37,7.37,0,0,1-3.172-.082c-.81-.23-1.653-.657-1.721-1.4,0-.033-.017-.082-.017-.115-.017-.148.017-.805,1.654-2.563,0,0,2.75-2.892-1.232-5.669a4.058,4.058,0,0,0-4.859.312s-2.936,1.89-1.1,6.31c0,0,1.282,3.484,6.293,4.634a19.046,19.046,0,0,0,8.622-.016C261.781,169.783,272.714,166.858,271.246,153.466Z" transform="translate(-229.049 -106.8)"/></svg>